<svg id="Camada_1" data-name="Camada 1" xmlns="http://www.w3.org/2000/svg" viewBox="0 0 36.6 36.7"><defs><style>.cls-1{fill:#ff3c6a;fill-rule:evenodd;}</style></defs><title>logo</title><g id="OPT-2"><g id="Nav"><g id="pink_blue_logo_text" data-name="pink blue logo text"><g id="logo"><g id="Group"><path class="cls-1" d="M32.2,29.8a.33.33,0,0,0,.5,0,18.4,18.4,0,0,0,3.9-11.3A17.75,17.75,0,0,0,32.5,7,.28.28,0,0,0,32,7L30.6,8.4a.45.45,0,0,0,0,.5,15.13,15.13,0,0,1,3.2,7.7.22.22,0,0,1-.2.2h-3a.22.22,0,0,1-.2-.2A12.42,12.42,0,0,0,17.2,6.2,12.4,12.4,0,0,0,6,17.6a12.73,12.73,0,0,0,2.1,7.9c.1.2.4.2.6,0l1.4-1.4a.3.3,0,0,0,0-.4,9.12,9.12,0,0,1-1.4-6.1A9.58,9.58,0,1,1,20.1,28.1c-.1,0-.3-.1-.3-.2V24.8a.35.35,0,0,1,.1-.2,6,6,0,0,0,4.4-5.9,5.3,5.3,0,0,0-.7-2.8.19.19,0,0,0-.3,0l-1.7,1.7a.44.44,0,0,0-.1.5,3.67,3.67,0,0,1-.1,1.8A3.52,3.52,0,0,1,19,22.1a3.43,3.43,0,0,1-1.9-6.6,3.08,3.08,0,0,1,1.9,0,.75.75,0,0,0,.5-.1l1.7-1.7a.19.19,0,0,0,0-.3,6.38,6.38,0,0,0-3.9-.7A6.16,6.16,0,0,0,17,24.8a.22.22,0,0,1,.2.2v3.1a.22.22,0,0,1-.2.2,9.24,9.24,0,0,1-4-1.5.45.45,0,0,0-.5,0L11,27.9c-.2.2-.1.4,0,.6a11.9,11.9,0,0,0,7.2,2.3A12.27,12.27,0,0,0,30.4,19.7a.22.22,0,0,1,.2-.2h2.9a.22.22,0,0,1,.2.2,15.83,15.83,0,0,1-3.1,8.2.45.45,0,0,0,0,.5l1.6,1.4Z"/><path class="cls-1" d="M18.3,2.7a15.46,15.46,0,0,1,9.4,3.2.3.3,0,0,0,.4,0l1.4-1.4a.33.33,0,0,0,0-.5A18.42,18.42,0,0,0,18.3,0,18.52,18.52,0,0,0,.1,15.8a.37.37,0,0,0,.4.4h2c.2,0,.3-.1.4-.3A15.46,15.46,0,0,1,18.3,2.7Z"/><path class="cls-1" d="M28.4,30.8a.45.45,0,0,0-.5,0A15.5,15.5,0,0,1,18.2,34,15.71,15.71,0,0,1,2.6,19.9c0-.2-.2-.3-.4-.3H.2A.7.7,0,0,0,0,20,18.42,18.42,0,0,0,29.8,32.7a.28.28,0,0,0,0-.5l-1.4-1.4Z"/></g></g></g></g></g></svg>